<svg width="14" height="14" viewBox="0 0 14 14" fill="none" xmlns="http://www.w3.org/2000/svg">
<path fill-rule="evenodd" clip-rule="evenodd" d="M0.470316 0.469177C0.610942 0.328726 0.801566 0.249837 1.00032 0.249837C1.19907 0.249837 1.38969 0.328726 1.53032 0.469177L7.00032 5.93918L12.4703 0.469177C12.539 0.39549 12.6218 0.336388 12.7138 0.295396C12.8058 0.254404 12.9051 0.232362 13.0058 0.230585C13.1065 0.228809 13.2065 0.247333 13.2999 0.285054C13.3933 0.322775 13.4781 0.37892 13.5494 0.450138C13.6206 0.521357 13.6767 0.606191 13.7144 0.699579C13.7522 0.792967 13.7707 0.892997 13.7689 0.993699C13.7671 1.0944 13.7451 1.19372 13.7041 1.28571C13.6631 1.37771 13.604 1.46052 13.5303 1.52918L8.06032 6.99918L13.5303 12.4692C13.604 12.5378 13.6631 12.6206 13.7041 12.7126C13.7451 12.8046 13.7671 12.904 13.7689 13.0047C13.7707 13.1054 13.7522 13.2054 13.7144 13.2988C13.6767 13.3922 13.6206 13.477 13.5494 13.5482C13.4781 13.6194 13.3933 13.6756 13.2999 13.7133C13.2065 13.751 13.1065 13.7695 13.0058 13.7678C12.9051 13.766 12.8058 13.7439 12.7138 13.703C12.6218 13.662 12.539 13.6029 12.4703 13.5292L7.00032 8.05918L1.53032 13.5292C1.38814 13.6617 1.2001 13.7338 1.00579 13.7304C0.811493 13.7269 0.626108 13.6482 0.488695 13.5108C0.351282 13.3734 0.27257 13.188 0.269142 12.9937C0.265713 12.7994 0.337836 12.6114 0.470316 12.4692L5.94032 6.99918L0.470316 1.52918C0.329866 1.38855 0.250977 1.19793 0.250977 0.999177C0.250977 0.800426 0.329866 0.609802 0.470316 0.469177Z" fill="grey"/>
</svg>
