<svg width="21" height="21" viewBox="0 0 21 21" fill="none" xmlns="http://www.w3.org/2000/svg">
<g clip-path="url(#clip0_1667_439)">
<path d="M14.6944 11.9C14.8619 11.4523 14.9469 10.978 14.9452 10.5C14.9452 9.43871 14.5236 8.42087 13.7731 7.67041C13.0227 6.91995 12.0048 6.49835 10.9435 6.49835C10.4714 6.4989 10.0032 6.58385 9.56104 6.74918L10.5002 7.71752C10.643 7.69468 10.7873 7.68298 10.9319 7.68252C11.6823 7.68095 12.4028 7.97637 12.9362 8.50426C13.4696 9.03215 13.7724 9.74962 13.7785 10.5C13.7781 10.6446 13.7664 10.7889 13.7435 10.9317L14.6944 11.9Z" fill="#A4AFBD"/>
<path d="M20.0023 10.2259C18.0365 6.59168 14.589 4.39252 10.774 4.39252C9.73524 4.39496 8.70351 4.56232 7.71729 4.88835L8.65645 5.83335C9.3482 5.65458 10.0595 5.56248 10.774 5.55918C14.0581 5.55918 17.0448 7.39085 18.824 10.4767C18.1713 11.6215 17.3061 12.6313 16.2748 13.4517L17.1031 14.28C18.2967 13.3171 19.2879 12.1276 20.0198 10.78L20.1715 10.5L20.0023 10.2259Z" fill="#A4AFBD"/>
<path d="M2.84068 3.37167L5.44235 5.97334C3.79789 7.03215 2.45388 8.4967 1.53985 10.2258L1.38818 10.5L1.53985 10.78C3.50568 14.4142 6.95318 16.6133 10.7682 16.6133C12.2572 16.613 13.7269 16.276 15.0674 15.6275L17.984 18.5442L19.0049 17.6692L3.83818 2.5025L2.84068 3.37167ZM8.52818 9.05917L12.4073 12.9383C11.969 13.2096 11.4645 13.355 10.949 13.3583C10.5745 13.3583 10.2036 13.2843 9.85782 13.1404C9.51201 12.9966 9.19806 12.7857 8.93403 12.5201C8.67001 12.2544 8.46112 11.9392 8.31939 11.5925C8.17765 11.2458 8.10588 10.8745 8.10818 10.5C8.11476 9.9905 8.25995 9.4924 8.52818 9.05917ZM7.68235 8.21334C7.1366 8.98299 6.88081 9.92092 6.96025 10.8611C7.03969 11.8012 7.44925 12.6829 8.11641 13.3501C8.78357 14.0173 9.66529 14.4268 10.6054 14.5063C11.5456 14.5857 12.4835 14.3299 13.2532 13.7842L14.1865 14.7175C13.1061 15.1793 11.9432 15.4175 10.7682 15.4175C7.48402 15.4175 4.49735 13.5858 2.71818 10.5C3.57201 8.98813 4.80169 7.72229 6.28818 6.825L7.68235 8.21334Z" fill="#A4AFBD"/>
</g>
<defs>
<clipPath id="clip0_1667_439">
<rect width="21" height="21" fill="white"/>
</clipPath>
</defs>
</svg>
