<svg width="22" height="14" viewBox="0 0 22 14" fill="none" xmlns="http://www.w3.org/2000/svg">
<path d="M21.7145 7.2835C21.6839 7.35262 20.9428 8.99675 19.2951 10.6444C17.0998 12.8398 14.3269 14 11.2749 14C8.22289 14 5.45002 12.8398 3.25464 10.6444C1.60702 8.99675 0.862394 7.35 0.835269 7.2835C0.795468 7.19398 0.774902 7.0971 0.774902 6.99913C0.774902 6.90115 0.795468 6.80427 0.835269 6.71475C0.865894 6.64563 1.60702 5.00237 3.25464 3.35475C5.45002 1.16025 8.22289 0 11.2749 0C14.3269 0 17.0998 1.16025 19.2951 3.35475C20.9428 5.00237 21.6839 6.64563 21.7145 6.71475C21.7543 6.80427 21.7749 6.90115 21.7749 6.99913C21.7749 7.0971 21.7543 7.19398 21.7145 7.2835ZM11.2749 1.4C8.58165 1.4 6.22877 2.37913 4.28102 4.30937C3.48183 5.10414 2.80191 6.01042 2.26239 7C2.80176 7.98968 3.4817 8.89597 4.28102 9.69063C6.22877 11.6209 8.58165 12.6 11.2749 12.6C13.9681 12.6 16.321 11.6209 18.2688 9.69063C19.0695 8.89616 19.7509 7.98987 20.2918 7C19.6609 5.82225 16.9125 1.4 11.2749 1.4ZM11.2749 11.2C10.4442 11.2 9.63219 10.9537 8.9415 10.4922C8.25081 10.0307 7.71249 9.37472 7.3946 8.60727C7.07671 7.83982 6.99354 6.99534 7.1556 6.18062C7.31765 5.3659 7.71767 4.61753 8.30505 4.03015C8.89243 3.44277 9.6408 3.04276 10.4555 2.8807C11.2702 2.71864 12.1147 2.80182 12.8822 3.11971C13.6496 3.43759 14.3056 3.97592 14.7671 4.6666C15.2286 5.35729 15.4749 6.16932 15.4749 7C15.4737 8.11355 15.0309 9.18117 14.2435 9.96857C13.4561 10.756 12.3884 11.1988 11.2749 11.2ZM11.2749 4.2C10.7211 4.2 10.1798 4.36422 9.7193 4.67189C9.25884 4.97955 8.89996 5.41685 8.68803 5.92849C8.47611 6.44012 8.42066 7.00311 8.5287 7.54625C8.63673 8.0894 8.90341 8.58831 9.295 8.9799C9.68658 9.37149 10.1855 9.63816 10.7286 9.7462C11.2718 9.85424 11.8348 9.79879 12.3464 9.58686C12.858 9.37494 13.2953 9.01605 13.603 8.5556C13.9107 8.09514 14.0749 7.55379 14.0749 7C14.0749 6.25739 13.7799 5.5452 13.2548 5.0201C12.7297 4.495 12.0175 4.2 11.2749 4.2Z" fill="#A4AFBD"/>
</svg>
